<?xml version="1.0" encoding="UTF-8" standalone="no"?>
<svg
   viewBox="0 0 170.08008 201.40926"
   version="1.1"
   id="svg104"
   sodipodi:docname="Universität_Bielefeld_Logo_white.svg"
   width="170.08008"
   height="201.40926"
   inkscape:version="1.2.2 (b0a8486541, 2022-12-01)"
   xmlns:inkscape="http://www.inkscape.org/namespaces/inkscape"
   xmlns:sodipodi="http://sodipodi.sourceforge.net/DTD/sodipodi-0.dtd"
   xmlns="http://www.w3.org/2000/svg"
   xmlns:svg="http://www.w3.org/2000/svg"
   xmlns:rdf="http://www.w3.org/1999/02/22-rdf-syntax-ns#"
   xmlns:cc="http://creativecommons.org/ns#"
   xmlns:dc="http://purl.org/dc/elements/1.1/">
  <defs
     id="defs108" />
  <sodipodi:namedview
     id="namedview106"
     pagecolor="#ffffff"
     bordercolor="#000000"
     borderopacity="0.25"
     inkscape:showpageshadow="2"
     inkscape:pageopacity="0.0"
     inkscape:pagecheckerboard="0"
     inkscape:deskcolor="#d1d1d1"
     showgrid="false"
     inkscape:zoom="2.5974704"
     inkscape:cx="58.133482"
     inkscape:cy="111.0696"
     inkscape:window-width="1920"
     inkscape:window-height="1051"
     inkscape:window-x="-9"
     inkscape:window-y="-9"
     inkscape:window-maximized="1"
     inkscape:current-layer="svg104" />
  <title
     id="title56">Element 4</title>
  <path
     id="polygon102"
     d="M 0,0 V 170.14062 H 170.08008 V 36.460938 h -36.5 V 0 Z m 144.30664,133.81836 a 2.1077883,2.1077883 0 0 1 2.10352,2.10352 2.0826207,2.0826207 0 0 1 -2.10352,2.10546 2.0605989,2.0605989 0 0 1 -2.10547,-2.10546 2.0794747,2.0794747 0 0 1 2.10547,-2.10352 z m -5.6875,0.0215 a 2.1046424,2.1046424 0 0 1 -0.29883,4.1875 2.0605989,2.0605989 0 0 1 -2.10547,-2.10546 2.1046424,2.1046424 0 0 1 2.4043,-2.08204 z M 27.050781,139.41992 H 27.8125 l 0.03711,0.0449 9.994141,11.36914 V 139.7793 h 3.271484 v 18.38476 h -0.757812 l -0.03711,-0.043 -9.941406,-11.28906 v 11.00195 h -3.328125 z m 78.179689,0.0293 c 2.4161,0 4.07411,1.12547 5.38281,2.22656 l 0.084,0.0723 -1.57227,2.29687 -0.10742,-0.084 c -1.3559,-1.07591 -2.62994,-1.6211 -3.82227,-1.6211 -1.19231,0 -2.40039,0.67327 -2.40039,1.93164 0,0.99727 0.56682,1.60461 2.32227,2.49805 l 2.06445,1.04492 c 1.67993,0.83998 3.91211,2.28096 3.91211,5.08399 0,3.14909 -2.36587,5.28192 -5.9082,5.26562 -2.07634,0 -4.22772,-0.98125 -6.398441,-2.91601 l -0.08398,-0.0762 1.650391,-2.40235 0.10742,0.0879 c 1.49747,1.22692 3.12771,2.36328 4.89258,2.36328 1.51948,0 2.42578,-0.77809 2.42578,-2.07422 0,-1.12309 -0.87926,-1.79521 -2.29492,-2.51562 l -1.76368,-0.85938 c -1.8341,-0.83369 -4.275384,-2.26331 -4.275384,-5.30859 0,-3.04527 2.271124,-5.01367 5.785154,-5.01367 z m 35.61133,0.0527 h 0.91406 l 0.0312,0.0859 7.59766,18.24609 h -3.4043 l -1.31836,-3.24414 h -6.67188 l -1.25976,3.24414 h -3.40625 z m 7.51367,0.22657 h 13.46484 v 2.97265 h -5.08203 v 15.08203 h -3.27344 v -15.08203 h -5.10937 z M 8.9550781,139.7793 h 3.3007809 v 11.22461 c 0,2.45699 1.553604,4.13086 3.828125,4.13086 2.274521,0 3.800782,-1.66128 3.800782,-4.13086 l 0.002,-11.22461 H 23.1895 v 11.4082 c 0,3.48257 -2.195832,6.99219 -7.103515,6.99219 -2.17385,0 -4.00313,-0.71358 -5.292969,-2.08203 a 7.0783934,7.0783934 0 0 1 -1.8378909,-4.90235 z m 36.2246099,0 h 3.300781 v 18.05468 h -3.300781 z m 6.132812,0 h 3.541016 l 4.169922,11.10937 4.085937,-11.10937 h 3.460937 l -7.214843,18.32812 H 58.46875 Z m 18.085938,0 h 10.96289 v 2.9707 h -7.660156 v 4.50195 h 7.222656 v 2.8086 h -7.222656 v 4.85742 h 7.660156 v 2.91601 h -10.96289 z m 44.742182,0 h 3.29883 v 18.05468 h -3.29883 z m 6.75,0 h 13.46094 v 2.9707 h -5.08008 v 15.08398 H 126 V 142.75 h -5.10938 z m -36.830073,0.0137 h 5.619141 c 3.87895,0 6.195312,1.96476 6.195312,5.26172 0,2.85653 -1.794778,4.80989 -4.808594,5.25976 l 5.845703,7.51953 h -3.916015 l -0.03711,-0.0508 -5.597656,-7.25781 v 7.30859 h -3.300781 z m 3.300781,2.77148 v 5.34766 h 1.960938 c 2.101495,0 3.304687,-0.97501 3.304687,-2.67383 0,-1.65163 -1.182638,-2.67383 -3.085937,-2.67383 z m 53.933592,3.58789 -2.23828,5.68555 h 4.51367 z"
     style="fill:#ffffff" />
  <path
     d="m 18.37699,187.53085 a 4.5427556,4.5427556 0 0 0 2.309129,-3.91672 c 0,-3.0327 -2.403507,-4.84162 -6.427181,-4.84162 H 8.9548612 v 18.01687 H 14.72454 c 4.146364,0 6.606499,-1.98194 6.606499,-5.30408 0.01253,-1.81836 -1.0885,-3.27808 -2.954049,-3.95445 z m -6.128316,-1.1231 v -4.88881 h 2.120373 c 1.768025,0 3.051574,0.98467 3.051574,2.34057 0,1.23637 -0.802219,2.56081 -3.051574,2.56081 z m 2.639454,7.69813 h -2.639454 v -5.10272 h 2.894277 c 1.802631,0 2.966632,0.95952 2.966632,2.44756 -0.0063,1.69564 -1.176585,2.66775 -3.221455,2.66775 z"
     fill="#1d1d1b"
     id="path84"
     style="stroke-width:0.314595;fill:#ffffff" />
  <rect
     x="24.222162"
     y="178.77254"
     width="3.2938128"
     height="18.010578"
     fill="#1d1d1b"
     id="rect86"
     style="stroke-width:0.314595;fill:#ffffff" />
  <polygon
     points="298.26,169.99 333.02,169.99 333.02,160.73 308.73,160.73 308.73,145.33 331.63,145.33 331.63,136.43 308.73,136.43 308.73,122.16 333.02,122.16 333.02,112.73 298.26,112.73 "
     fill="#1d1d1b"
     id="polygon88"
     transform="matrix(0.31459527,0,0,0.31459527,-62.562081,143.30819)"
     style="fill:#ffffff" />
  <polygon
     points="353.26,112.73 342.79,112.73 342.79,169.99 377.64,169.99 377.64,160.29 353.26,160.29 "
     fill="#1d1d1b"
     id="polygon90"
     transform="matrix(0.31459527,0,0,0.31459527,-62.562081,143.30819)"
     style="fill:#ffffff" />
  <polygon
     points="388.03,169.99 422.8,169.99 422.8,160.73 398.5,160.73 398.5,145.33 421.4,145.33 421.4,136.43 398.5,136.43 398.5,122.16 422.8,122.16 422.8,112.73 388.03,112.73 "
     fill="#1d1d1b"
     id="polygon92"
     transform="matrix(0.31459527,0,0,0.31459527,-62.562081,143.30819)"
     style="fill:#ffffff" />
  <polygon
     points="466.22,138.25 445.15,138.25 445.15,122.34 467.79,122.34 467.79,112.73 434.68,112.73 434.68,169.99 445.15,169.99 445.15,146.9 466.22,146.9 "
     fill="#1d1d1b"
     id="polygon94"
     transform="matrix(0.31459527,0,0,0.31459527,-62.562081,143.30819)"
     style="fill:#ffffff" />
  <polygon
     points="478.72,169.99 513.49,169.99 513.49,160.73 489.19,160.73 489.19,145.33 512.1,145.33 512.1,136.43 489.19,136.43 489.19,122.16 513.49,122.16 513.49,112.73 478.72,112.73 "
     fill="#1d1d1b"
     id="polygon96"
     transform="matrix(0.31459527,0,0,0.31459527,-62.562081,143.30819)"
     style="fill:#ffffff" />
  <polygon
     points="535.32,112.73 524.85,112.73 524.85,169.99 559.7,169.99 559.7,160.29 535.32,160.29 "
     fill="#1d1d1b"
     id="polygon98"
     transform="matrix(0.31459527,0,0,0.31459527,-62.562081,143.30819)"
     style="fill:#ffffff" />
  <path
     d="m 122.94531,178.77251 h -5.76966 v 18.01687 h 5.63438 c 7.28918,0 9.8783,-4.90767 9.8783,-9.12326 0,-5.23488 -4.00795,-8.89361 -9.74302,-8.89361 z m 6.31078,8.89361 c 0,3.99537 -2.29969,6.29191 -6.31078,6.29191 h -2.47587 v -12.30068 h 2.55767 c 3.10191,0 6.22898,1.85927 6.22898,6.00877 z"
     fill="#1d1d1b"
     id="path100"
     style="stroke-width:0.314595;fill:#ffffff" />
  <metadata
     id="metadata398">
    <rdf:RDF>
      <cc:Work
         rdf:about="">
        <dc:title>Element 4</dc:title>
      </cc:Work>
    </rdf:RDF>
  </metadata>
</svg>
